HIERARCHY
ROOT hip
{
	OFFSET 0.000000 0.000000 0.000000 
	CHANNELS 6 Xposition Yposition Zposition Xrotation Zrotation Yrotation
	JOINT abdomen
	{
		OFFSET 0.000000 3.402643 0.000000 
		CHANNELS 3 Xrotation Zrotation Yrotation
		JOINT chest
		{
			OFFSET 0.000000 8.438565 -0.680529 
			CHANNELS 3 Xrotation Zrotation Yrotation
			JOINT neck
			{
				OFFSET 0.000000 10.207942 -0.272212 
				CHANNELS 3 Xrotation Zrotation Yrotation
				JOINT head
				{
					OFFSET 0.000000 3.130431 0.000000 
					CHANNELS 3 Xrotation Zrotation Yrotation
					End Site
					{
						OFFSET 0.000000 3.130435 0.000000 
					}
				}
			}
			JOINT lCollar
			{
				OFFSET 3.470700 6.669187 -0.816635 
				CHANNELS 3 Yrotation Zrotation Xrotation
				JOINT lShldr
				{
					OFFSET 3.198488 0.000000 0.000000 
					CHANNELS 3 Zrotation Yrotation Xrotation
					JOINT lForeArm
					{
						OFFSET 10.139888 0.000000 0.000000 
						CHANNELS 3 Yrotation Zrotation Xrotation
						JOINT lHand
						{
							OFFSET 8.370511 0.000000 0.000000 
							CHANNELS 3 Zrotation Yrotation Xrotation
							End Site
							{
								OFFSET 4.083176 0.000000 0.000000 
							}
						}
					}
				}
			}
			JOINT rCollar
			{
				OFFSET -3.470700 6.669187 -0.816635 
				CHANNELS 3 Yrotation Zrotation Xrotation
				JOINT rShldr
				{
					OFFSET -3.198488 0.000000 0.000000 
					CHANNELS 3 Zrotation Yrotation Xrotation
					JOINT rForeArm
					{
						OFFSET -10.139888 0.000000 0.000000 
						CHANNELS 3 Yrotation Zrotation Xrotation
						JOINT rHand
						{
							OFFSET -8.370511 0.000000 0.000000 
							CHANNELS 3 Zrotation Yrotation Xrotation
							End Site
							{
								OFFSET -4.083176 0.000000 0.000000 
							}
						}
					}
				}
			}
		}
	}
	JOINT lThigh
	{
		OFFSET 5.308129 -1.633274 1.361059 
		CHANNELS 3 Xrotation Zrotation Yrotation
		JOINT lShin
		{
			OFFSET -2.041588 -20.007561 0.000000 
			CHANNELS 3 Xrotation Zrotation Yrotation
			JOINT lFoot
			{
				OFFSET 0.000000 -19.190928 -1.224953 
				CHANNELS 3 Xrotation Yrotation Zrotation
				End Site
				{
					OFFSET 0.000000 -2.449906 4.627600 
				}
			}
		}
	}
	JOINT rThigh
	{
		OFFSET -5.308129 -1.633274 1.361059 
		CHANNELS 3 Xrotation Zrotation Yrotation
		JOINT rShin
		{
			OFFSET 2.041588 -20.007561 0.000000 
			CHANNELS 3 Xrotation Zrotation Yrotation
			JOINT rFoot
			{
				OFFSET 0.000000 -19.190928 -1.224953 
				CHANNELS 3 Xrotation Yrotation Zrotation
				End Site
				{
					OFFSET 0.000000 -2.449906 4.627600 
				}
			}
		}
	}
}
MOTION
Frames: 18
Frame Time: 0.011111
52.240025 51.640915 9.344095 172.624222 176.473709 -3.646391 5.923443 1.458240 6.031331 -3.676854 -0.966307 1.671233 -13.640572 -3.862435 -1.716651 15.015355 1.529824 -4.193937 1.452834 -1.250150 0.768655 -76.890411 -22.563875 14.867486 -49.371685 7.848722 6.952939 6.992188 16.005859 -47.995354 -6.408587 0.914528 1.823621 76.281837 26.544718 20.191210 58.936447 -9.717099 10.927725 -7.001954 -15.996095 42.929684 -33.914032 4.502015 -9.798434 25.985380 -5.292781 -1.882014 -10.799034 3.537753 0.020027 15.334803 3.876001 6.672241 19.409658 5.299052 1.317068 -8.794430 4.581031 1.416413 
52.216473 51.611927 8.748595 172.705780 177.106400 -3.392230 5.844719 0.543201 5.881918 -3.667154 -0.771290 1.641722 -13.667421 -3.741984 -1.794348 15.005754 1.421927 -4.343455 1.452834 -1.250150 0.768655 -76.834084 -22.837753 14.808420 -49.101269 7.779882 6.840024 6.992188 16.005859 -48.903557 -6.408587 0.914528 1.823621 76.470383 26.057615 19.407974 58.562389 -9.666621 10.769896 -7.001954 -15.996095 42.470703 -33.406872 3.642649 -9.683993 26.584347 -5.291644 -1.926169 -9.952707 3.123122 -0.126819 14.696045 3.261585 6.414529 21.451670 5.298879 1.486238 -8.029546 4.674538 1.394964 
52.206200 51.593506 8.157022 172.883499 177.759888 -3.025071 5.831122 -0.394691 5.499956 -3.647632 -0.762083 1.563335 -13.324482 -3.693207 -1.825603 14.328345 1.902581 -4.305120 1.452834 -1.250150 0.768655 -76.493858 -23.143091 14.590973 -48.913921 7.729982 6.766413 6.992188 16.005859 -48.542225 -6.408587 0.914528 1.823621 76.945244 25.624245 18.674322 58.092384 -9.599646 10.560910 -7.001954 -15.996095 41.826168 -32.709873 2.724983 -9.441359 27.223413 -5.287847 -1.999661 -9.128793 2.757355 -0.224184 13.980977 2.675494 5.989281 23.743347 5.297644 1.675867 -7.130252 4.720357 1.342402 
52.226433 51.601357 7.593832 172.894272 178.222168 -2.789945 5.763109 -1.158911 5.040866 -3.530596 -0.403712 1.445357 -13.290951 -4.029630 -1.728527 13.885164 2.584472 -4.106525 1.452834 -1.250150 0.768655 -76.538437 -23.738476 13.784533 -48.779327 7.697841 6.720379 6.992188 16.005859 -47.897694 -6.408587 0.914528 1.823621 77.079628 25.475271 18.203249 57.732025 -9.555117 10.414014 -7.001954 -15.996095 41.347652 -32.298870 2.109914 -9.191461 27.861927 -5.281692 -2.034527 -8.511572 2.488895 -0.301001 12.954181 2.265262 5.777924 26.127970 5.278018 1.894628 -5.822522 4.616182 1.231100 
52.233379 51.614040 7.042120 172.855270 178.484436 -2.591249 5.638422 -1.615761 4.810382 -3.442827 -0.112787 1.396983 -13.313128 -4.226489 -1.750389 13.803861 2.797909 -4.156708 1.452834 -1.250150 0.768655 -76.670837 -24.284363 13.301142 -48.664246 7.662469 6.675830 6.992188 16.005859 -47.731686 -6.408587 0.914528 1.823621 77.181786 25.211351 17.604452 57.508656 -9.523294 10.315020 -7.001954 -15.996095 41.015625 -32.065498 1.680182 -8.960292 28.540407 -5.272745 -2.098630 -8.071375 2.436940 -0.332429 11.780104 2.020952 5.431380 28.521168 5.267784 2.077125 -4.337452 4.523387 1.099407 
52.214058 51.595921 6.472288 173.079178 178.542725 -2.419599 5.681221 -1.779347 5.012750 -3.559931 -0.266269 1.455551 -12.869258 -4.116565 -1.975657 13.768052 2.889335 -4.543406 1.452834 -1.250150 0.768655 -76.319420 -24.443289 13.972351 -48.466370 7.606070 6.593318 6.992188 16.005859 -47.839104 -6.408587 0.914528 1.823621 77.588936 24.518690 16.661613 57.189354 -9.475185 10.184341 -7.001954 -15.996095 40.791016 -31.486341 1.465661 -8.742431 29.226582 -5.273126 -2.155781 -7.741168 2.136842 -0.380973 10.954204 1.894303 4.993832 30.880983 5.237469 2.282990 -2.723411 4.456205 0.976873 
52.180840 51.580219 5.906985 173.216034 178.541565 -2.454903 5.605807 -1.823891 5.425853 -3.735591 -0.456936 1.573831 -12.259758 -4.023617 -2.194452 13.644041 3.107673 -4.905800 1.452834 -1.250150 0.768655 -75.899651 -24.632006 15.004367 -48.072826 7.504187 6.446705 6.992188 16.005859 -48.151604 -6.408587 0.914528 1.823621 77.944580 23.810762 15.791386 56.742634 -9.405151 9.988936 -7.001954 -15.996095 40.781250 -31.016115 1.397426 -8.410776 29.902555 -5.272050 -2.213110 -7.502093 1.640158 -0.444784 9.986356 1.767218 4.818104 33.185207 5.207626 2.476360 -0.516884 4.566284 0.759778 
52.147926 51.595619 5.356178 173.245773 178.523849 -2.564276 5.495320 -1.785956 5.581523 -3.872222 -0.579978 1.614465 -12.082862 -3.984792 -2.243579 13.837711 3.249226 -4.949625 1.452834 -1.250150 0.768655 -75.764107 -24.818579 15.364661 -47.865486 7.447089 6.365594 6.992188 16.005859 -48.571526 -6.408587 0.914528 1.823621 78.113754 23.325077 15.350902 56.317883 -9.337000 9.814557 -7.001954 -15.996095 40.703117 -30.715658 1.426412 -7.920689 30.551157 -5.253136 -2.273428 -7.352406 1.007670 -0.530740 8.815251 1.650081 4.854917 35.505939 5.168835 2.686297 2.177012 4.475199 0.474467 
52.121956 51.615246 4.806579 173.423065 178.696930 -2.764987 5.628376 -2.006955 5.626935 -3.794119 -0.591895 1.633228 -12.339737 -4.129462 -2.156539 14.159625 3.531974 -4.793203 1.452834 -1.250150 0.768655 -75.748154 -25.219105 15.042221 -47.823654 7.432959 6.348767 6.992188 16.005859 -48.962154 -6.408587 0.914528 1.823621 78.207275 23.071634 15.103814 55.935669 -9.272366 9.644359 -7.001954 -15.996095 40.439457 -30.106720 1.318394 -7.296142 31.126667 -5.253007 -2.306813 -7.331528 0.363940 -0.629731 7.610970 1.327600 4.957177 37.915749 5.093620 2.897664 4.900979 3.937625 0.179311 
52.104439 51.621288 4.276307 173.620407 179.206345 -2.918733 5.803739 -2.674633 5.504994 -3.540398 -0.315905 1.621379 -12.611101 -4.542755 -2.016840 14.129987 4.109863 -4.550358 1.452834 -1.250150 0.768655 -75.843681 -26.009428 14.812662 -47.596004 7.371090 6.257345 6.992188 16.005859 -49.479729 -6.408587 0.914528 1.823621 78.126289 23.157211 15.172447 55.501450 -9.199115 9.463407 -7.001954 -15.996095 40.380863 -29.298155 0.791786 -6.789450 31.574724 -5.243176 -2.361634 -7.514366 -0.031418 -0.667934 6.269960 0.683436 5.132584 40.466167 5.043965 3.092191 7.352286 3.315971 -0.095834 
52.092964 51.629745 3.752677 173.826599 179.784485 -2.999563 5.966395 -3.423482 5.154805 -3.403872 0.129775 1.544452 -12.998000 -4.776420 -1.855808 14.553958 4.144708 -4.279864 1.452834 -1.250150 0.768655 -76.064323 -26.535130 14.775132 -47.574642 7.360631 6.250308 6.992188 16.005859 -49.626213 -6.408587 0.914528 1.823621 77.833611 23.320152 15.495978 54.918194 -9.090447 9.221411 -7.001954 -15.996095 40.087894 -28.415470 0.166279 -6.393891 31.852379 -5.243741 -2.392324 -7.825876 -0.277703 -0.698366 4.910417 0.009959 5.214109 43.096409 4.948152 3.291612 9.583689 2.838321 -0.330948 
52.061859 51.668701 3.224820 173.945114 -179.717987 -3.210840 6.024285 -3.979781 5.069185 -3.647956 0.234010 1.534129 -13.045802 -4.723116 -1.874428 15.159123 3.963067 -4.323236 1.452834 -1.250150 0.768655 -75.986153 -26.565016 15.165178 -47.719563 7.400764 6.304238 6.992188 16.005859 -49.362537 -6.408587 0.914528 1.823621 77.746094 23.053127 15.618715 54.315948 -8.978791 8.969954 -7.001954 -15.996095 39.433590 -27.540665 -0.389664 -5.995671 31.953907 -5.227891 -2.402377 -8.087018 -0.465486 -0.726268 3.277009 -0.662770 5.144064 45.742146 4.859515 3.519172 11.855886 2.382403 -0.569104 
52.031059 51.718224 2.709948 174.042709 -179.108078 -3.274749 6.068821 -4.660758 4.984958 -3.960337 0.213077 1.532987 -12.772118 -4.772507 -1.933797 15.361592 4.224371 -4.414011 1.452834 -1.250150 0.768655 -75.712524 -26.664734 15.866270 -47.761387 7.414979 6.321009 6.992188 16.005859 -49.098866 -6.408587 0.914528 1.823621 77.749596 22.601591 15.845883 53.872677 -8.893020 8.784454 -7.001954 -15.996095 38.916012 -26.631687 -1.072953 -5.655633 31.901751 -5.243736 -2.374830 -8.168726 -0.646051 -0.761102 1.469313 -1.429616 4.984221 48.374039 4.778008 3.708672 13.924639 2.650998 -0.913888 
52.016869 51.746006 2.199001 174.274811 -178.429642 -3.130540 6.293826 -5.480271 4.469388 -3.960488 0.583526 1.413813 -13.048251 -4.814573 -1.792370 15.698748 4.063548 -4.170515 1.452834 -1.250150 0.768655 -75.805191 -27.132803 16.056831 -47.740948 7.411160 6.311322 6.992188 16.005859 -48.991447 -6.408587 0.914528 1.823621 77.435951 22.560282 16.376423 53.513130 -8.816545 8.632088 -7.001954 -15.996095 38.574223 -25.451153 -1.883432 -5.326001 31.634203 -5.243221 -2.364015 -8.192242 -0.954459 -0.796993 -0.116713 -2.262053 4.817284 51.004562 4.679787 3.897101 15.548547 3.187542 -1.284705 
51.990288 51.776199 1.686244 174.487854 -177.884506 -3.112167 6.452571 -6.096454 4.001621 -3.804430 0.979765 1.306924 -13.421045 -4.759157 -1.606456 16.028419 3.597659 -3.869151 1.452834 -1.250150 0.768655 -75.947502 -27.659101 16.199032 -47.781830 7.418792 6.320935 6.992188 16.005859 -48.718010 -6.408587 0.914528 1.823621 77.058975 22.779427 16.939949 53.092064 -8.731470 8.458774 -7.001954 -15.996095 38.320313 -24.276958 -2.529230 -5.078056 31.296825 -5.243835 -2.330466 -8.426622 -1.174848 -0.840777 -1.715158 -2.992764 4.692215 53.574413 4.572182 4.085817 16.657192 3.129159 -1.473398 
51.966434 51.850491 1.175902 174.651917 -177.469345 -3.039419 6.629743 -6.534312 3.560004 -3.775256 1.291358 1.199342 -13.639696 -4.830504 -1.402028 16.367386 3.375532 -3.515511 1.452834 -1.250150 0.768655 -76.040382 -28.136934 16.658630 -47.917080 7.459797 6.383712 6.992188 16.005859 -47.985588 -6.408587 0.914528 1.823621 76.762024 23.001331 17.217491 52.597500 -8.626471 8.256661 -7.001954 -15.996095 37.851563 -23.200182 -3.085297 -4.945056 31.077259 -5.253014 -2.324315 -8.843223 -1.412565 -0.885305 -3.473811 -3.542535 4.595683 56.014591 4.464454 4.264109 16.989798 3.557793 -1.632482 
51.950428 51.891861 0.668277 174.894318 -177.208923 -2.927764 6.874367 -6.789021 3.200165 -3.990244 1.558988 1.105057 -13.610863 -4.788216 -1.273880 16.742714 2.970305 -3.336205 1.452834 -1.250150 0.768655 -76.072739 -28.439436 17.371706 -47.938473 7.470102 6.390857 6.992188 16.005859 -47.389885 -6.408587 0.914528 1.823621 76.525352 22.933510 16.979445 52.176971 -8.533853 8.087252 -7.001954 -15.996095 36.767578 -22.140635 -3.464866 -4.923950 30.959568 -5.243109 -2.297409 -9.403371 -1.773025 -0.945325 -4.943174 -3.910626 4.570658 58.276485 4.355421 4.422096 16.425713 4.334425 -1.680420 
51.920834 51.832676 0.180884 175.107819 -176.886581 -2.939170 6.955736 -7.095883 3.118263 -4.087956 1.629151 1.092116 -13.272861 -4.505681 -1.326114 16.705303 2.492662 -3.410817 1.452834 -1.250150 0.768655 -75.917419 -28.606627 18.308054 -48.103989 7.513012 6.455177 6.992188 16.005859 -47.292225 -6.408587 0.914528 1.823621 76.556076 22.744493 16.358706 51.894314 -8.474816 7.976669 -7.001954 -15.996095 35.361332 -21.226580 -3.895455 -4.796917 30.928350 -5.252620 -2.298823 -9.917684 -2.134921 -1.009048 -6.076048 -4.438426 4.466142 60.291233 4.257735 4.553389 15.172777 4.781361 -1.513116 
